<svg version="1.1" class="w-[128px] h-[25px]" xmlns="http://www.w3.org/2000/svg" xmlns:xlink="http://www.w3.org/1999/xlink" x="0px" y="0px" viewBox="0 0 1417.3 253" style="enable-background:new 0 0 1417.3 253;" xml:space="preserve">
    <g>
      <path fill="#0000D0" d="M531.1,211.5V99.7c0-46.2-45.1-85.2-98.4-85.2c-55.2,0-100.2,43.3-100.2,96.4c0,49.7,6.9,73.6,25.5,88.5
        c20.5,16.5,52.6,29.1,119.1-20.4l11.1-8.3v40.7H531.1z M458.7,145.2c-24.9,18.9-46.4,30.2-57.7,30.2c-11.9,0-20.6-9.6-22.8-16
        c-2.2-5-3.1-19.6-3.1-48.7c0-31.6,25.8-57.3,57.5-57.4c15.4,0,30.4,6.3,41.2,17.3c10.6,10.8,16.3,25.2,15.9,40.6l-0.1,2.3l-1.4,1.8
        C479.1,126.9,469.4,136.7,458.7,145.2z"/>
      <path fill="#0000D0" d="M763.5,80.6V17.2h-42.9v50.7c0,31.7-58.3,40.8-58.3,40.8s-58.3-9.1-58.3-40.8V17.2h-42.9V79
        c0,44.6,79.7,70.1,79.7,70.1v62.4h42.9v-62.3C683.9,149.1,763.5,125.2,763.5,80.6z"/>
      <path fill="#0000D0" d="M1417.3,213.1V101.4c0-46.2-45-85.2-98.3-85.2c-55.2,0-100.2,43.3-100.2,96.5c0,49.7,6.9,73.7,25.5,88.5
        c20.5,16.5,52.6,29.1,119.1-20.4l11.1-8.3v40.8H1417.3z M1345,146.8c-24.9,18.9-46.5,30.2-57.7,30.2c-11.9,0-20.6-9.6-22.8-16.1
        c-1.4-3.3-3.1-12.1-3.1-48.7c0-31.6,25.8-57.3,57.6-57.4c15.4,0,30.4,6.3,41.2,17.3c10.6,10.8,16.3,25.2,15.9,40.6l0,2.3l-1.5,1.8
        C1368.7,124.4,1359.2,135.7,1345,146.8z"/>
      <path fill="#0000D0" d="M1049.2,197.2c15.3,8.6,34.5,13,57.1,13c25.4,0,45.5-5.2,59.7-15.5c14.2-10.3,21.4-25.2,21.4-44.4
        c0-3.8-0.6-7.6-1.7-11.4c-1.2-3.7-2.6-7-4.1-9.9c-1.6-2.9-3.8-5.7-6.5-8.5c-2.8-2.8-5.3-5.1-7.6-7c-2.3-1.9-11.2-8-28.3-14.4
        c-4-1.5-7-2.3-8.7-2.9c-1.7-0.5-4.4-1.4-8.1-2.5c-2.4-0.7-5.3-1.6-5.8-1.6l-0.2,0c-1.2-0.3-4.5-1.1-10.3-2.6
        c-5.8-1.5-22.1-6.4-26.1-8.4c-4-1.9-7-4.2-8.7-6.8c-1.7-2.6-2.6-5.5-2.6-8.8c0-6.1,2.7-10.8,8.2-14.5c5.5-3.7,13.4-5.6,23.5-5.6
        c11,0,25.1,2.4,35.3,7.3c10.1,4.9,16.8,10.3,20,16l0,0l31-18.6l0-0.1c-5.5-10.9-15.4-20.3-29.4-27.8c-14-7.5-31.4-11.3-51.6-11.3
        c-22.8,0-41.9,4.9-56.6,14.4c-14.8,9.6-22.2,23.8-22.2,42.1c0,4.9,0.9,9.7,2.6,14.1c1.7,4.4,3.7,8.2,5.7,11.3
        c2,3.2,5.2,6.3,9.4,9.3c4.2,3,7.7,5.4,10.5,7.2c2.8,1.8,6.8,3.7,12.2,5.8c5.6,2.1,9.1,3.5,11.1,4.1c2,0.7,5.5,1.7,10.5,3.1l7.5,2.1
        c1.4,0.3,6.6,1.8,10.6,2.9c5.9,1.6,13.4,4.2,16.2,5.1c2.8,1,6.2,2.5,10.2,4.5c4,2,7,4.4,8.9,7c1.9,2.6,2.8,5.6,2.8,9.2
        c0,15-14.8,21.4-37.9,21.4c-12.7,0-24.7-3.2-35.5-9.5c-10.8-6.3-17.8-13.1-20.7-20.2l0-0.1l-32.8,20.3l0,0.1
        C1023.3,177.8,1033.9,188.6,1049.2,197.2z"/>
      <path fill="#0000D0" d="M986.4,147.6h-45c-3.7,8.5-9.9,15.3-18.4,20.3c-8.6,5.1-18.4,7.7-29.2,7.7c-16.2,0-29.5-4.7-39.4-14
        c-10-9.3-15.9-22-17.8-37.8l-0.1-0.9h153.7l0.4-13.2c0-28.9-9.1-53.2-27.2-72.3c-18-19.1-42-28.7-71.2-28.7s-53.3,9.9-71.7,29.3
        c-18.4,19.4-27.8,43.8-27.8,72.5c0,29.4,9.3,54.1,27.6,73.3c18.3,19.2,42.6,28.9,72.3,28.9c22.8,0,42.9-6.1,59.6-18.2
        C968.7,182.5,980.1,166.7,986.4,147.6z M837.4,90.2c2.4-14,8.5-25.4,18.2-33.8c9.7-8.4,22-12.7,36.7-12.7
        c14.9,0,27.3,4.3,36.7,12.7c9.4,8.4,15.3,19.8,17.4,33.8l0.1,1H837.2L837.4,90.2z"/>
      <g>
        <path fill="#0000D0" d="M77.2,173.9c-9.3,7.3-15.6,14.7-19.5,19.7c-0.1,9.1,3.2,17.7,9.5,24.1c6.5,6.6,15.5,10.4,24.8,10.4
          c19,0,34.6-15.5,34.6-34.5c0-24-1.1-30.2-1.7-31.7l-0.2-0.4c-0.8-2.5-5-7.5-10.7-7.5C109,154.1,96.5,159.3,77.2,173.9z"/>
        <path fill="#0000D0" d="M164.3,0c-31.1,0.1-56.4,25.3-56.4,56.3c0,39.2,1.8,49.2,2.8,51.7l0.3,0.7c1.4,4.1,8.1,12.2,17.5,12.2
          c8,0,28.5-8.5,59.9-32.3c15.2-11.9,25.4-24,31.9-32.1c0.2-14.9-5.3-28.9-15.5-39.3C194,6.2,179.3,0,164.3,0z"/>
        <path fill="#0000D0" d="M98.3,130.2c0-6.5-6.9-23.2-26.3-48.8c-9.7-12.3-19.5-20.7-26.1-25.9c-0.3,0-0.5,0-0.8,0
          c-11.9,0-22.9,4.5-31.3,12.7C5,76.8,0,88.8,0,101.1C0.1,126.4,20.6,147,45.8,147c31.9,0,40.1-1.4,42.1-2.3l0.5-0.2
          C91.8,143.3,98.3,137.8,98.3,130.2z"/>
        <path fill="#0000D0" d="M218.2,127.5c-43.8,0-55,2-57.7,3.2l-0.7,0.3c-4.6,1.5-13.6,9.1-13.6,19.5c0,8.9,9.5,31.8,36.1,66.9
          c13.3,16.9,26.8,28.4,35.9,35.6c16.7,0.3,32.2-5.9,43.9-17.3c12.1-11.9,19-28.3,19-45.1C280.9,155.8,252.7,127.5,218.2,127.5z"/>
      </g>
    </g>
</svg>