<svg xmlns="http://www.w3.org/2000/svg" width="440" height="190" fill="none" aria-labelledby="descId" role="img" viewBox="0 0 440 190"><title id="titleId"/><desc id="descId"/><style>.header{font:600 18px &apos;Segoe UI&apos;,Ubuntu,Sans-Serif;fill:#0a0a0a;animation:fadeInAnimation .8s ease-in-out forwards}@supports (-moz-appearance:auto){.header{font-size:15.5px}}.lang-name{font:400 11px &quot;Segoe UI&quot;,Ubuntu,Sans-Serif;fill:#52525b}.stagger{opacity:0;animation:fadeInAnimation .3s ease-in-out forwards}#rect-mask rect{animation:slideInAnimation 1s ease-in-out forwards}</style><rect width="439" height="99%" x=".5" y=".5" fill="#ffffff00" stroke="#e4e2e2" stroke-opacity="0" data-testid="card-bg" rx="4.5"/><g data-testid="card-title"><g><text x="0" y="0" class="header" data-testid="header" transform="translate(25, 35) translate(0, 0)">Most Used Languages</text></g></g><g data-testid="main-card-body" transform="translate(0, 55)"><svg x="25" data-testid="lang-items"><mask id="rect-mask"><rect width="390" height="8" x="0" y="0" fill="#fff" rx="5"/></mask><rect width="351.49" height="8" x="0" y="0" fill="#3572A5" data-testid="lang-progress" mask="url(#rect-mask)"/><rect width="11.89" height="8" x="351.49" y="0" fill="#e34c26" data-testid="lang-progress" mask="url(#rect-mask)"/><rect width="18.21" height="8" x="363.38" y="0" fill="#f1e05a" data-testid="lang-progress" mask="url(#rect-mask)"/><rect width="16.7" height="8" x="371.59" y="0" fill="#C1F12E" data-testid="lang-progress" mask="url(#rect-mask)"/><rect width="15.91" height="8" x="378.29" y="0" fill="#89e051" data-testid="lang-progress" mask="url(#rect-mask)"/><rect width="13.39" height="8" x="384.2" y="0" fill="#639" data-testid="lang-progress" mask="url(#rect-mask)"/><rect width="12.34" height="8" x="387.59" y="0" fill="#427819" data-testid="lang-progress" mask="url(#rect-mask)"/><rect width="10.07" height="8" x="389.93" y="0" fill="#012456" data-testid="lang-progress" mask="url(#rect-mask)"/><g><g><g><g class="stagger" style="animation-delay:450ms" transform="translate(0, 25) translate(0, 0) translate(0, 0)"><circle cx="5" cy="6" r="5" fill="#3572A5"/><text x="15" y="10" class="lang-name" data-testid="lang-name">Python 90.13%</text></g></g><g><g class="stagger" style="animation-delay:600ms" transform="translate(0, 25) translate(0, 0) translate(0, 25)"><circle cx="5" cy="6" r="5" fill="#e34c26"/><text x="15" y="10" class="lang-name" data-testid="lang-name">HTML 3.05%</text></g></g><g><g class="stagger" style="animation-delay:750ms" transform="translate(0, 25) translate(0, 0) translate(0, 50)"><circle cx="5" cy="6" r="5" fill="#f1e05a"/><text x="15" y="10" class="lang-name" data-testid="lang-name">JavaScript 2.11%</text></g></g><g><g class="stagger" style="animation-delay:900ms" transform="translate(0, 25) translate(0, 0) translate(0, 75)"><circle cx="5" cy="6" r="5" fill="#C1F12E"/><text x="15" y="10" class="lang-name" data-testid="lang-name">Batchfile 1.72%</text></g></g></g><g><g><g class="stagger" style="animation-delay:450ms" transform="translate(0, 25) translate(150, 0) translate(0, 0)"><circle cx="5" cy="6" r="5" fill="#89e051"/><text x="15" y="10" class="lang-name" data-testid="lang-name">Shell 1.52%</text></g></g><g><g class="stagger" style="animation-delay:600ms" transform="translate(0, 25) translate(150, 0) translate(0, 25)"><circle cx="5" cy="6" r="5" fill="#639"/><text x="15" y="10" class="lang-name" data-testid="lang-name">CSS 0.87%</text></g></g><g><g class="stagger" style="animation-delay:750ms" transform="translate(0, 25) translate(150, 0) translate(0, 50)"><circle cx="5" cy="6" r="5" fill="#427819"/><text x="15" y="10" class="lang-name" data-testid="lang-name">Makefile 0.60%</text></g></g><g><g class="stagger" style="animation-delay:900ms" transform="translate(0, 25) translate(150, 0) translate(0, 75)"><circle cx="5" cy="6" r="5" fill="#012456"/><text x="15" y="10" class="lang-name" data-testid="lang-name">PowerShell 0.02%</text></g></g></g></g></svg></g></svg>